<svg width="20" height="20" viewBox="0 0 20 20" fill="none" xmlns="http://www.w3.org/2000/svg">
<path d="M5 20C4.45 20 3.97933 19.8043 3.588 19.413C3.19667 19.0217 3.00067 18.5507 3 18V10C3 8.58333 3.371 7.31667 4.113 6.2C4.855 5.08333 5.81733 4.25 7 3.7V3C7 2.16667 7.29167 1.45833 7.875 0.875C8.45833 0.291667 9.16667 0 10 0C10.8333 0 11.5417 0.291667 12.125 0.875C12.7083 1.45833 13 2.16667 13 3V3.7C14.1833 4.25 15.146 5.08333 15.888 6.2C16.63 7.31667 17.0007 8.58333 17 10V18C17 18.55 16.8043 19.021 16.413 19.413C16.0217 19.805 15.5507 20.0007 15 20H5ZM13 14C13.2833 14 13.521 13.904 13.713 13.712C13.905 13.52 14.0007 13.2827 14 13V10H6V12H12V13C12 13.2833 12.096 13.521 12.288 13.713C12.48 13.905 12.7173 14.0007 13 14ZM9 3.1C9.18333 3.06667 9.35 3.04167 9.5 3.025C9.65 3.00833 9.81666 3 10 3C10.1833 3 10.35 3.00833 10.5 3.025C10.65 3.04167 10.8167 3.06667 11 3.1V3C11 2.71667 10.904 2.47933 10.712 2.288C10.52 2.09667 10.2827 2.00067 10 2C9.71733 1.99933 9.48 2.09533 9.288 2.288C9.096 2.48067 9 2.718 9 3V3.1Z" fill="black"/>
</svg>
