<svg width="20" height="20" viewBox="0 0 20 20" fill="none" xmlns="http://www.w3.org/2000/svg">
<path d="M5.5 20C4.53333 20 3.70833 19.6583 3.025 18.975C2.34167 18.2917 2 17.4667 2 16.5V3.5C2 2.53333 2.34167 1.70833 3.025 1.025C3.70833 0.341667 4.53333 0 5.5 0H16C16.55 0 17.021 0.195667 17.413 0.587C17.805 0.978333 18.0007 1.44933 18 2V14.525C18 14.6583 17.946 14.7793 17.838 14.888C17.73 14.9967 17.534 15.1173 17.25 15.25C17.0167 15.3667 16.8333 15.5333 16.7 15.75C16.5667 15.9667 16.5 16.2167 16.5 16.5C16.5 16.7833 16.5667 17.0377 16.7 17.263C16.8333 17.4883 17.0167 17.6507 17.25 17.75C17.4833 17.8493 17.6667 17.987 17.8 18.163C17.9333 18.339 18 18.5263 18 18.725V18.975C18 19.2583 17.904 19.5 17.712 19.7C17.52 19.9 17.2827 20 17 20H5.5ZM7 13C7.28333 13 7.521 12.904 7.713 12.712C7.905 12.52 8.00067 12.2827 8 12V3C8 2.71667 7.904 2.47933 7.712 2.288C7.52 2.09667 7.28267 2.00067 7 2C6.71733 1.99933 6.48 2.09533 6.288 2.288C6.096 2.48067 6 2.718 6 3V12C6 12.2833 6.096 12.521 6.288 12.713C6.48 12.905 6.71733 13.0007 7 13ZM5.5 18H14.825C14.725 17.7667 14.646 17.5293 14.588 17.288C14.53 17.0467 14.5007 16.784 14.5 16.5C14.5 16.2333 14.525 15.975 14.575 15.725C14.625 15.475 14.7083 15.2333 14.825 15H5.5C5.06667 15 4.70833 15.146 4.425 15.438C4.14167 15.73 4 16.084 4 16.5C4 16.9333 4.14167 17.2917 4.425 17.575C4.70833 17.8583 5.06667 18 5.5 18Z" fill="black"/>
</svg>
