<svg width="20" height="20" viewBox="0 0 20 20" fill="none" xmlns="http://www.w3.org/2000/svg">
<g clip-path="url(#clip0_27_1716)">
<path d="M3 20C2.45 20 1.97933 19.8043 1.588 19.413C1.19667 19.0217 1.00067 18.5507 1 18V4C1 3.45 1.196 2.97934 1.588 2.588C1.98 2.19667 2.45067 2.00067 3 2H4V1C4 0.71667 4.096 0.479337 4.288 0.288003C4.48 0.0966702 4.71733 0.000670115 5 3.44827e-06C5.28267 -0.000663218 5.52033 0.0953369 5.713 0.288003C5.90566 0.48067 6.00133 0.718003 6 1V2H14V1C14 0.71667 14.096 0.479337 14.288 0.288003C14.48 0.0966702 14.7173 0.000670115 15 3.44827e-06C15.2827 -0.000663218 15.5203 0.0953369 15.713 0.288003C15.9057 0.48067 16.0013 0.718003 16 1V2H17C17.55 2 18.021 2.196 18.413 2.588C18.805 2.98 19.0007 3.45067 19 4V18C19 18.55 18.8043 19.021 18.413 19.413C18.0217 19.805 17.5507 20.0007 17 20H3ZM3 18H17V8H3V18ZM10 12C9.71666 12 9.47933 11.904 9.288 11.712C9.09666 11.52 9.00066 11.2827 9 11C8.99933 10.7173 9.09533 10.48 9.288 10.288C9.48066 10.096 9.718 10 10 10C10.282 10 10.5197 10.096 10.713 10.288C10.9063 10.48 11.002 10.7173 11 11C10.998 11.2827 10.902 11.5203 10.712 11.713C10.522 11.9057 10.2847 12.0013 10 12ZM6 12C5.71667 12 5.47933 11.904 5.288 11.712C5.09667 11.52 5.00067 11.2827 5 11C4.99933 10.7173 5.09533 10.48 5.288 10.288C5.48067 10.096 5.718 10 6 10C6.282 10 6.51967 10.096 6.713 10.288C6.90633 10.48 7.002 10.7173 7 11C6.998 11.2827 6.902 11.5203 6.712 11.713C6.522 11.9057 6.28467 12.0013 6 12ZM14 12C13.7167 12 13.4793 11.904 13.288 11.712C13.0967 11.52 13.0007 11.2827 13 11C12.9993 10.7173 13.0953 10.48 13.288 10.288C13.4807 10.096 13.718 10 14 10C14.282 10 14.5197 10.096 14.713 10.288C14.9063 10.48 15.002 10.7173 15 11C14.998 11.2827 14.902 11.5203 14.712 11.713C14.522 11.9057 14.2847 12.0013 14 12ZM10 16C9.71666 16 9.47933 15.904 9.288 15.712C9.09666 15.52 9.00066 15.2827 9 15C8.99933 14.7173 9.09533 14.48 9.288 14.288C9.48066 14.096 9.718 14 10 14C10.282 14 10.5197 14.096 10.713 14.288C10.9063 14.48 11.002 14.7173 11 15C10.998 15.2827 10.902 15.5203 10.712 15.713C10.522 15.9057 10.2847 16.0013 10 16ZM6 16C5.71667 16 5.47933 15.904 5.288 15.712C5.09667 15.52 5.00067 15.2827 5 15C4.99933 14.7173 5.09533 14.48 5.288 14.288C5.48067 14.096 5.718 14 6 14C6.282 14 6.51967 14.096 6.713 14.288C6.90633 14.48 7.002 14.7173 7 15C6.998 15.2827 6.902 15.5203 6.712 15.713C6.522 15.9057 6.28467 16.0013 6 16ZM14 16C13.7167 16 13.4793 15.904 13.288 15.712C13.0967 15.52 13.0007 15.2827 13 15C12.9993 14.7173 13.0953 14.48 13.288 14.288C13.4807 14.096 13.718 14 14 14C14.282 14 14.5197 14.096 14.713 14.288C14.9063 14.48 15.002 14.7173 15 15C14.998 15.2827 14.902 15.5203 14.712 15.713C14.522 15.9057 14.2847 16.0013 14 16Z" fill="black"/>
</g>
<defs>
<clipPath id="clip0_27_1716">
<rect width="20" height="20" fill="white"/>
</clipPath>
</defs>
</svg>
