<svg width="20" height="20" viewBox="0 0 20 20" fill="none" xmlns="http://www.w3.org/2000/svg">
<g clip-path="url(#clip0_27_1721)">
<path d="M2.22222 20C1.61111 20 1.08815 19.7826 0.653333 19.3478C0.218519 18.913 0.000740741 18.3896 0 17.7778V2.22222C0 1.61111 0.217778 1.08815 0.653333 0.653333C1.08889 0.218519 1.61185 0.000740741 2.22222 0H6.66667C7.27778 0 7.80111 0.217778 8.23667 0.653333C8.67222 1.08889 8.88963 1.61185 8.88889 2.22222V17.7778C8.88889 18.3889 8.67148 18.9122 8.23667 19.3478C7.80185 19.7833 7.27852 20.0007 6.66667 20H2.22222ZM13.3333 20C12.7222 20 12.1993 19.7826 11.7644 19.3478C11.3296 18.913 11.1119 18.3896 11.1111 17.7778V12.2222C11.1111 11.6111 11.3289 11.0881 11.7644 10.6533C12.2 10.2185 12.723 10.0007 13.3333 10H17.7778C18.3889 10 18.9122 10.2178 19.3478 10.6533C19.7833 11.0889 20.0007 11.6119 20 12.2222V17.7778C20 18.3889 19.7826 18.9122 19.3478 19.3478C18.913 19.7833 18.3896 20.0007 17.7778 20H13.3333ZM13.3333 7.77778C12.7222 7.77778 12.1993 7.56037 11.7644 7.12556C11.3296 6.69074 11.1119 6.16741 11.1111 5.55556V2.22222C11.1111 1.61111 11.3289 1.08815 11.7644 0.653333C12.2 0.218519 12.723 0.000740741 13.3333 0H17.7778C18.3889 0 18.9122 0.217778 19.3478 0.653333C19.7833 1.08889 20.0007 1.61185 20 2.22222V5.55556C20 6.16667 19.7826 6.69 19.3478 7.12556C18.913 7.56111 18.3896 7.77852 17.7778 7.77778H13.3333Z" fill="black"/>
</g>
<defs>
<clipPath id="clip0_27_1721">
<rect width="20" height="20" fill="white"/>
</clipPath>
</defs>
</svg>
