<svg width="20" height="20" viewBox="0 0 20 20" fill="none" xmlns="http://www.w3.org/2000/svg">
<g clip-path="url(#clip0_27_1741)">
<path d="M1.11111 20C0.7963 20 0.532596 19.8933 0.320004 19.68C0.107411 19.4667 0.000744572 19.2029 3.83141e-06 18.8889C-0.000736909 18.5748 0.10593 18.3111 0.320004 18.0978C0.534078 17.8844 0.797781 17.7778 1.11111 17.7778H2.22222V2.22222C2.22222 1.61111 2.44 1.08815 2.87556 0.653333C3.31111 0.218518 3.83407 0.00074074 4.44445 0H15.5555C16.1667 0 16.69 0.217778 17.1255 0.653333C17.5611 1.08889 17.7785 1.61185 17.7778 2.22222V17.7778H18.8889C19.2037 17.7778 19.4678 17.8844 19.6811 18.0978C19.8944 18.3111 20.0007 18.5748 20 18.8889C19.9992 19.2029 19.8926 19.467 19.68 19.6811C19.4674 19.8952 19.2037 20.0015 18.8889 20H1.11111ZM15.5555 17.7778V2.22222H10.5556V0.999999C11.3704 1.14815 12.037 1.52778 12.5556 2.13889C13.0741 2.75 13.3333 3.46296 13.3333 4.27777V16.6111C13.3333 17.1481 13.1574 17.6252 12.8056 18.0422C12.4537 18.4592 12.0093 18.7137 11.4722 18.8055V17.7778H15.5555ZM8.88889 11.1111C9.2037 11.1111 9.46778 11.0044 9.68111 10.7911C9.89444 10.5778 10.0007 10.3141 10 9.99999C9.99926 9.68592 9.89259 9.42222 9.68 9.20888C9.46741 8.99555 9.2037 8.88888 8.88889 8.88888C8.57407 8.88888 8.31037 8.99555 8.09778 9.20888C7.88518 9.42222 7.77852 9.68592 7.77778 9.99999C7.77704 10.3141 7.8837 10.5781 8.09778 10.7922C8.31185 11.0063 8.57555 11.1126 8.88889 11.1111Z" fill="black"/>
</g>
<defs>
<clipPath id="clip0_27_1741">
<rect width="20" height="20" fill="white"/>
</clipPath>
</defs>
</svg>
