<svg width="20" height="20" viewBox="0 0 20 20" fill="none" xmlns="http://www.w3.org/2000/svg">
<path d="M10 7.09091C10.7233 7.09091 11.417 7.37825 11.9285 7.88971C12.4399 8.40117 12.7273 9.09486 12.7273 9.81818C12.7273 10.5415 12.4399 11.2352 11.9285 11.7467C11.417 12.2581 10.7233 12.5455 10 12.5455C9.27668 12.5455 8.58299 12.2581 8.07153 11.7467C7.56006 11.2352 7.27273 10.5415 7.27273 9.81818C7.27273 9.09486 7.56006 8.40117 8.07153 7.88971C8.58299 7.37825 9.27668 7.09091 10 7.09091ZM10 3C14.5455 3 18.4273 5.82727 20 9.81818C18.4273 13.8091 14.5455 16.6364 10 16.6364C5.45455 16.6364 1.57273 13.8091 0 9.81818C1.57273 5.82727 5.45455 3 10 3ZM1.98182 9.81818C2.71659 11.3185 3.85755 12.5825 5.27498 13.4666C6.69241 14.3507 8.32945 14.8194 10 14.8194C11.6705 14.8194 13.3076 14.3507 14.725 13.4666C16.1425 12.5825 17.2834 11.3185 18.0182 9.81818C17.2834 8.3179 16.1425 7.05387 14.725 6.16977C13.3076 5.28567 11.6705 4.81698 10 4.81698C8.32945 4.81698 6.69241 5.28567 5.27498 6.16977C3.85755 7.05387 2.71659 8.3179 1.98182 9.81818Z" fill="black"/>
</svg>
