<svg width="20" height="20" viewBox="0 0 20 20" fill="none" xmlns="http://www.w3.org/2000/svg">
<path d="M10 7.09091C9.27668 7.09091 8.58299 7.37825 8.07153 7.88971C7.56006 8.40117 7.27273 9.09486 7.27273 9.81818C7.27273 10.5415 7.56006 11.2352 8.07153 11.7467C8.58299 12.2581 9.27668 12.5455 10 12.5455C10.7233 12.5455 11.417 12.2581 11.9285 11.7467C12.4399 11.2352 12.7273 10.5415 12.7273 9.81818C12.7273 9.09486 12.4399 8.40117 11.9285 7.88971C11.417 7.37825 10.7233 7.09091 10 7.09091ZM10 14.3636C8.79447 14.3636 7.63832 13.8847 6.78588 13.0323C5.93344 12.1799 5.45455 11.0237 5.45455 9.81818C5.45455 8.61265 5.93344 7.4565 6.78588 6.60406C7.63832 5.75162 8.79447 5.27273 10 5.27273C11.2055 5.27273 12.3617 5.75162 13.2141 6.60406C14.0666 7.4565 14.5455 8.61265 14.5455 9.81818C14.5455 11.0237 14.0666 12.1799 13.2141 13.0323C12.3617 13.8847 11.2055 14.3636 10 14.3636ZM10 3C5.45455 3 1.57273 5.82727 0 9.81818C1.57273 13.8091 5.45455 16.6364 10 16.6364C14.5455 16.6364 18.4273 13.8091 20 9.81818C18.4273 5.82727 14.5455 3 10 3Z" fill="black"/>
</svg>
