<svg width="20" height="20" viewBox="0 0 20 20" fill="none" xmlns="http://www.w3.org/2000/svg">
<g clip-path="url(#clip0_27_1737)">
<path d="M2.22222 20C1.61111 20 1.08815 19.7826 0.653333 19.3478C0.218518 18.913 0.00074074 18.3896 0 17.7778V2.22222C0 1.61111 0.217778 1.08815 0.653333 0.653333C1.08889 0.218518 1.61185 0.00074074 2.22222 0H8.88888C9.2037 0 9.46777 0.106667 9.6811 0.32C9.89444 0.533333 10.0007 0.797036 9.99999 1.11111C9.99925 1.42518 9.89259 1.68926 9.67999 1.90333C9.4674 2.11741 9.2037 2.2237 8.88888 2.22222H2.22222V17.7778H8.88888C9.2037 17.7778 9.46777 17.8844 9.6811 18.0978C9.89444 18.3111 10.0007 18.5748 9.99999 18.8889C9.99925 19.2029 9.89259 19.467 9.67999 19.6811C9.4674 19.8952 9.2037 20.0015 8.88888 20H2.22222ZM15.75 11.1111H7.77777C7.46296 11.1111 7.19925 11.0044 6.98666 10.7911C6.77407 10.5778 6.6674 10.3141 6.66666 9.99999C6.66592 9.68592 6.77259 9.42222 6.98666 9.20888C7.20074 8.99555 7.46444 8.88888 7.77777 8.88888H15.75L13.6667 6.80555C13.463 6.60185 13.3611 6.35185 13.3611 6.05555C13.3611 5.75925 13.463 5.5 13.6667 5.27777C13.8704 5.05555 14.1296 4.93963 14.4444 4.93C14.7592 4.92037 15.0278 5.02703 15.25 5.25L19.2222 9.22222C19.4444 9.44444 19.5555 9.7037 19.5555 9.99999C19.5555 10.2963 19.4444 10.5555 19.2222 10.7778L15.25 14.75C15.0278 14.9722 14.7641 15.0789 14.4589 15.07C14.1537 15.0611 13.8896 14.9452 13.6667 14.7222C13.463 14.5 13.3659 14.2363 13.3755 13.9311C13.3852 13.6259 13.4915 13.3711 13.6944 13.1667L15.75 11.1111Z" fill="black"/>
</g>
<defs>
<clipPath id="clip0_27_1737">
<rect width="20" height="20" fill="white"/>
</clipPath>
</defs>
</svg>
