<svg width="20" height="20" viewBox="0 0 20 20" fill="none" xmlns="http://www.w3.org/2000/svg">
<g clip-path="url(#clip0_27_1718)">
<path d="M13.6389 10.5278L9.47222 6.33333L12.5556 3.27778L11.75 2.47222L6.44445 7.77778C6.22222 8 5.96296 8.11111 5.66667 8.11111C5.37037 8.11111 5.11111 8 4.88889 7.77778C4.66667 7.55556 4.55556 7.29185 4.55556 6.98667C4.55556 6.68148 4.66667 6.41741 4.88889 6.19444L10.1667 0.916667C10.6111 0.472222 11.1344 0.25 11.7367 0.25C12.3389 0.25 12.8619 0.472222 13.3056 0.916667L14.1111 1.72222L15.5 0.333333C15.7222 0.111111 15.9863 0 16.2922 0C16.5981 0 16.8619 0.111111 17.0833 0.333333L19.6667 2.91667C19.8889 3.13889 20 3.40296 20 3.70889C20 4.01481 19.8889 4.27852 19.6667 4.5L13.6389 10.5278ZM1.11111 20C0.796296 20 0.532593 19.8933 0.32 19.68C0.107408 19.4667 0.000740741 19.203 0 18.8889V16.75C0 16.4537 0.0555557 16.1711 0.166667 15.9022C0.277778 15.6333 0.435185 15.3974 0.638889 15.1944L7.88889 7.91667L12.0833 12.0833L4.80556 19.3611C4.60185 19.5648 4.36593 19.7222 4.09778 19.8333C3.82963 19.9444 3.54704 20 3.25 20H1.11111Z" fill="black"/>
</g>
<defs>
<clipPath id="clip0_27_1718">
<rect width="20" height="20" fill="white"/>
</clipPath>
</defs>
</svg>
