<svg width="20" height="20" viewBox="0 0 20 20" fill="none" xmlns="http://www.w3.org/2000/svg">
<g clip-path="url(#clip0_27_1727)">
<path d="M18.0861 14.177V8.53111L10.3828 12.7177C10.0957 12.8772 9.79266 12.9569 9.47369 12.9569C9.15471 12.9569 8.85168 12.8772 8.5646 12.7177L0.478477 8.3158C0.303038 8.22011 0.179275 8.10049 0.107185 7.95695C0.0350961 7.81341 -0.000629564 7.65392 8.39419e-06 7.47848C0.000646352 7.30304 0.0366911 7.14355 0.108142 7.00001C0.179594 6.85647 0.303038 6.73685 0.478477 6.64116L8.5646 2.23925C8.70814 2.1595 8.85582 2.09954 9.00766 2.05934C9.15949 2.01915 9.31483 1.99938 9.47369 2.00001C9.63254 2.00065 9.7882 2.02075 9.94067 2.0603C10.0931 2.09986 10.2405 2.1595 10.3828 2.23925L19.4976 7.21532C19.6571 7.29507 19.7809 7.41086 19.8689 7.56269C19.9569 7.71452 20.0006 7.87784 20 8.05264V14.177C20 14.4482 19.9081 14.6756 19.7244 14.8593C19.5407 15.0431 19.3135 15.1346 19.0431 15.134C18.7726 15.1333 18.5454 15.0415 18.3617 14.8584C18.178 14.6753 18.0861 14.4482 18.0861 14.177ZM8.5646 18.4593L3.77991 15.8756C3.46093 15.7002 3.21372 15.4609 3.03828 15.1579C2.86285 14.8549 2.77513 14.5279 2.77513 14.177V10.5407L8.5646 13.6746C8.85168 13.8341 9.15471 13.9139 9.47369 13.9139C9.79266 13.9139 10.0957 13.8341 10.3828 13.6746L16.1722 10.5407V14.177C16.1722 14.5279 16.0845 14.8549 15.9091 15.1579C15.7336 15.4609 15.4864 15.7002 15.1675 15.8756L10.3828 18.4593C10.2392 18.5391 10.0919 18.599 9.94067 18.6392C9.78947 18.6794 9.63381 18.6992 9.47369 18.6986C9.31356 18.6979 9.1579 18.6782 9.0067 18.6392C8.8555 18.6003 8.70814 18.5404 8.5646 18.4593Z" fill="black"/>
</g>
<defs>
<clipPath id="clip0_27_1727">
<rect width="20" height="20" fill="white"/>
</clipPath>
</defs>
</svg>
